<svg width="150" height="66" viewBox="0 0 150 66" fill="none" xmlns="http://www.w3.org/2000/svg">
<g clip-path="url(#clip0_1_145)">
<path d="M79.4641 12.7875C82.5831 12.7875 85.1793 14.6564 85.8377 17.6358L84.6359 17.9431C84.0298 15.4783 81.8605 13.8158 79.4633 13.9784C76.2285 13.9784 73.8071 16.527 73.8071 20.286C73.8071 24.045 76.2285 26.5935 79.4633 26.5935C81.963 26.7202 84.1728 24.8841 84.6558 22.2801L85.8569 22.6085C85.2066 25.7599 82.502 27.9495 79.4641 27.7853C75.559 27.6906 72.4658 24.2569 72.555 20.1147C72.6413 16.107 75.6844 12.879 79.4641 12.7875Z" fill="white"/>
<path d="M92.0918 21.2289C94.4145 20.8379 95.2108 20.386 95.2108 19.421C95.2108 18.1886 94.0679 17.3878 92.3432 17.3878C90.387 17.3878 89.0893 18.4357 88.7988 20.2436L87.6559 19.9762C87.8055 18.8978 88.3571 17.9282 89.1866 17.2846C90.1053 16.5878 91.2158 16.2336 92.344 16.2782C94.8274 16.2782 96.4518 17.6138 96.4518 19.647L96.4518 27.4755L95.3111 27.4755L95.3111 25.8935L95.2912 25.8935C94.3459 27.1838 92.8572 27.8923 91.3198 27.7836C88.975 27.7836 87.5593 26.6106 87.5593 24.6408C87.5593 22.728 88.7788 21.8037 92.0918 21.2289ZM95.2875 21.0029L95.2491 21.0029C94.9203 21.5973 94.1284 21.9273 92.3241 22.2354C89.7087 22.7046 88.7405 23.3865 88.7405 24.6392C88.7405 25.9944 89.6703 26.6724 91.5299 26.6724C93.6034 26.6724 95.2904 25.3571 95.2904 23.7556L95.2875 21.0029Z" fill="white"/>
<path d="M99.6316 23.4876C99.883 25.5622 101.394 26.7149 103.855 26.7149C105.966 26.7149 107.299 25.9133 107.299 24.6606C107.299 23.4274 106.331 22.8526 103.599 22.4413C100.075 21.9072 98.8913 21.0822 98.8913 19.3837C98.8913 17.5546 100.634 16.2808 103.137 16.2808C105.64 16.2808 107.65 17.7611 107.96 19.7935L106.854 20.0195C106.544 18.396 105.092 17.349 103.135 17.349C101.291 17.349 100.038 18.1708 100.038 19.3415C100.038 20.4511 100.87 20.9242 103.642 21.3747C107.187 21.9494 108.448 22.8127 108.448 24.659C108.448 26.5491 106.646 27.7815 103.857 27.7815C102.546 27.8347 101.253 27.4538 100.156 26.693C99.2297 25.9986 98.6362 24.9108 98.5292 23.7136L99.6316 23.4876Z" fill="white"/>
<path d="M114.757 21.2289C117.08 20.8379 117.876 20.386 117.876 19.421C117.876 18.1886 116.733 17.3878 115.009 17.3878C113.053 17.3878 111.755 18.4357 111.464 20.2436L110.321 19.9762C110.471 18.8978 111.022 17.9282 111.852 17.2846C112.77 16.5878 113.881 16.2336 115.009 16.2782C117.492 16.2782 119.116 17.6138 119.116 19.647L119.116 27.4755L117.975 27.4755L117.975 25.8935L117.956 25.8935C117.01 27.1838 115.522 27.8923 113.984 27.7836C111.639 27.7836 110.224 26.6106 110.224 24.6408C110.224 22.728 111.444 21.8037 114.757 21.2289ZM117.954 21.0029L117.915 21.0029C117.586 21.5973 116.794 21.9273 114.99 22.2354C112.375 22.7046 111.406 23.3865 111.406 24.6392C111.406 25.9944 112.336 26.6724 114.197 26.6724C116.269 26.6724 117.957 25.3571 117.957 23.7556L117.954 21.0029Z" fill="white"/>
<path d="M131.476 16.2769C133.054 16.2096 134.571 16.9236 135.583 18.2084L135.622 18.2084L135.622 12.4749L136.785 12.4749L136.785 27.4734L135.664 27.4734L135.664 25.8516L135.624 25.8516C134.625 27.1192 133.133 27.8308 131.575 27.7823C128.685 27.9145 126.24 25.5372 126.114 22.4718C126.108 22.324 126.108 22.177 126.114 22.0292C126.043 18.9294 128.353 16.3551 131.276 16.2777C131.342 16.2761 131.41 16.2761 131.476 16.2769ZM135.622 20.8375C135.622 18.9881 133.82 17.3865 131.537 17.3865C129.12 17.4647 127.22 19.6066 127.293 22.17C127.365 24.6622 129.28 26.65 131.631 26.6727C133.781 26.7345 135.681 25.0305 135.622 23.221L135.622 20.8375Z" fill="white"/>
<path d="M144.666 16.2764C147.662 16.3327 150.048 18.954 149.995 22.1312C149.942 25.3084 147.47 27.8389 144.474 27.7826C141.515 27.7271 139.144 25.1677 139.144 22.0287C139.069 18.9297 141.377 16.3531 144.299 16.2733C144.3 16.2733 144.3 16.2733 144.301 16.2733C144.422 16.2694 144.544 16.2709 144.666 16.2764ZM144.666 17.3861C142.248 17.3634 140.27 19.4239 140.248 21.9881C140.227 24.5522 142.17 26.6495 144.588 26.673C147.005 26.6957 148.983 24.6351 149.005 22.071C149.005 22.0702 149.005 22.0702 149.005 22.0694L149.005 22.0287C149.114 19.5811 147.331 17.5034 145.023 17.3876C144.901 17.3814 144.784 17.3814 144.666 17.3861Z" fill="white"/>
<path d="M73.573 46.9073C73.8252 49.7835 75.5299 51.263 78.6106 51.263C81.0321 51.263 82.5813 50.1737 82.5813 48.4478C82.5813 46.7017 81.4184 45.8993 77.8732 45.1635C74.0574 44.3424 72.7398 43.397 72.7398 41.3411C72.7398 39.0397 74.7159 37.4312 77.6218 37.4312C80.5277 37.4312 82.7944 39.2602 83.1431 41.9096L81.9221 42.1559C81.6124 39.9578 79.9659 38.6018 77.6218 38.6018C75.4326 38.6018 73.9608 39.6692 73.9608 41.2926C73.9608 42.6689 74.9489 43.2859 78.1844 43.9842C82.2907 44.8874 83.8215 46.0385 83.8215 48.4009C83.8215 50.8462 81.7296 52.4274 78.5914 52.4274C74.8914 52.4274 72.5835 50.4552 72.3527 47.0864L73.573 46.9073Z" fill="white"/>
<path d="M90.0573 45.8862C92.3799 45.4952 93.1763 45.0432 93.1763 44.0775C93.1763 42.8451 92.0334 42.0443 90.3094 42.0443C88.3525 42.0443 87.0555 43.0922 86.7642 44.9001L85.6213 44.6327C85.771 43.5543 86.3226 42.5847 87.1521 41.9411C88.0701 41.2436 89.1806 40.8901 90.3094 40.9347C92.7929 40.9347 94.4165 42.2703 94.4165 44.3035L94.4165 52.1312L93.2729 52.1312L93.2729 50.55L93.2537 50.55C92.3084 51.8403 90.8197 52.5488 89.2823 52.4401C86.9383 52.4401 85.5218 51.2671 85.5218 49.2965C85.524 47.3822 86.7406 46.4579 90.0573 45.8862ZM93.2537 45.6602L93.2139 45.6602C92.885 46.2545 92.0924 46.5845 90.2888 46.8926C87.6734 47.3618 86.7052 48.0437 86.7052 49.2965C86.7052 50.6517 87.6351 51.3297 89.4954 51.3297C91.5681 51.3297 93.2559 50.0144 93.2559 48.4128L93.2537 45.6602Z" fill="white"/>
<path d="M98.1954 50.5057L98.1954 52.1291L97.0739 52.1291L97.0739 37.1313L98.236 37.1313L98.236 42.8633L98.2743 42.8633C99.2867 41.5785 100.804 40.8646 102.382 40.9318C105.306 40.8888 107.709 43.3677 107.749 46.4683C107.749 46.4691 107.749 46.4699 107.749 46.4699C107.749 46.541 107.749 46.613 107.749 46.6841C107.853 49.7495 105.593 52.3239 102.703 52.4349C102.564 52.4404 102.424 52.4404 102.285 52.4349C100.727 52.4834 99.2351 51.7718 98.236 50.5042L98.1954 50.5057ZM102.325 42.0407C100.039 42.0407 98.2397 43.6438 98.2397 45.4924L98.2397 47.8751C98.1822 49.6839 100.083 51.3886 102.23 51.3268C104.649 51.3182 106.603 49.2311 106.594 46.6662C106.586 44.1544 104.695 42.104 102.328 42.0399L102.325 42.0407Z" fill="white"/>
<path d="M115.087 40.9304C118.167 40.9304 120.373 43.2928 120.373 46.7445L120.373 47.1941L110.9 47.1941C110.924 49.5229 112.72 51.3919 114.916 51.3715C114.979 51.3715 115.042 51.3715 115.104 51.3653C116.83 51.4458 118.437 50.4277 119.189 48.7769L120.118 49.4142C119.155 51.3817 117.191 52.5648 115.104 52.4342C112.305 52.6165 109.896 50.3573 109.725 47.3889C109.713 47.1879 109.712 46.9861 109.722 46.7844C109.554 43.7362 111.746 41.1204 114.62 40.9382C114.775 40.9281 114.932 40.9249 115.087 40.9304ZM119.172 46.1697C119.146 43.8378 117.342 41.9697 115.143 41.9978L115.087 41.9978C112.852 41.9321 110.988 43.7987 110.922 46.1689L119.172 46.1697Z" fill="white"/>
<path d="M122.74 41.2398L123.861 41.2398L123.861 42.4128L123.899 42.4128C124.502 41.544 125.463 41.0381 126.48 41.0537C126.98 41.0662 127.475 41.1491 127.955 41.3008L127.683 42.4738C127.259 42.3549 126.824 42.2861 126.386 42.2681C124.893 42.2681 123.903 43.3778 123.903 45.2678L123.903 52.1298L122.741 52.1298L122.74 41.2398Z" fill="white"/>
<path d="M42.9089 22.8068C38.0851 22.8068 34.4986 26.816 31.3744 30.0652L30.0678 31.4853C28.47 27.3228 23.8438 22.8052 19.2545 22.8052C13.7804 22.8052 9.93438 27.0225 9.93438 32.8976C9.94618 38.56 14.284 43.1409 19.6232 43.1291L19.7707 43.1291C24.6564 43.1291 28.2436 39.1199 31.3722 35.8027L32.448 34.6054C34.3393 38.3269 38.8888 43.1291 43.4921 43.1291C48.967 43.1291 52.8101 38.9064 52.8101 32.896C52.729 27.2406 48.3417 22.7246 43.0091 22.8083L42.9089 22.8068ZM19.7707 39.0526C16.5912 39.0393 14.023 36.2945 14.0355 32.9226L14.0355 32.9007C14.0355 29.4443 16.3855 27.0506 19.6394 26.8872C22.8624 26.7253 27.1855 29.0189 29.8923 31.6769L28.7723 32.9007C26.2225 35.3874 23.5504 39.0526 19.7707 39.0526ZM43.1692 39.1253C40.222 39.2192 35.7514 37.0296 32.5962 34.449L33.9817 32.9023C36.3582 30.3577 39.1181 26.8309 43.0416 26.8887C46.1658 26.9075 48.6941 29.589 48.7118 32.9023C48.7118 36.4267 46.6967 39.0112 43.1692 39.1253ZM62.2327 33C62.2327 51.2251 48.3011 66 31.1164 66C13.9316 66 4.47831e-06 51.2259 2.88495e-06 33C1.2916e-06 14.7742 13.9308 -1.21787e-06 31.1164 -2.72028e-06C48.3004 -4.22256e-06 62.2327 14.7749 62.2327 33Z" fill="white"/>
</g>
<defs>
<clipPath id="clip0_1_145">
<rect width="150" height="66" fill="white"/>
</clipPath>
</defs>
</svg>
